# xmcd
#
# Track frame offsets:
#	150
#	13781
#	27958
#	52997
#	68444
#	93099
#	107043
#	120021
#	133949
#	145856
#	164375
#	175365
#	190508
#	206106
#	216770
#	238143
#	251027
#	266299
#	281507
#	295157
#
# Disc length: 4125 seconds
#
# Revision: 2
# Processed by: cddbd v1.5.1PL0 Copyright (c) Steve Scherf et al.
# Submitted via: EasyCDDAExtractor 6.2.0.3
#
DISCID=1c101b14
DTITLE=Dwight Yoakam - In Other's Words/Population Me
DYEAR=1900
DGENRE=Country
TTITLE0=Borrowed Love
TTITLE1=Rocky Road Blues
TTITLE2=T For Texas
TTITLE3=Cattle Call
TTITLE4=Truckin'
TTITLE5=New San Antonio Rose
TTITLE6=Rapid City, South Dakota
TTITLE7=Louisville
TTITLE8=Holding Things Together
TTITLE9=Mystery Train
TTITLE10=The Late Great Golden State
TTITLE11=No Such Thing
TTITLE12=Fair To Midland
TTITLE13=An Exception To The Rule
TTITLE14=Population Me
TTITLE15=Stayin' Up Late (Thinkin' About It)
TTITLE16=Trains And Boats And Planes
TTITLE17=If Teardrops Were Diamonds
TTITLE18=I'd Avoid Me Too
TTITLE19=The Back Of Your Hand
EXTD=
EXTT0=
EXTT1=
EXTT2=
EXTT3=
EXTT4=
EXTT5=
EXTT6=
EXTT7=
EXTT8=
EXTT9=
EXTT10=
EXTT11=
EXTT12=
EXTT13=
EXTT14=
EXTT15=
EXTT16=
EXTT17=
EXTT18=
EXTT19=
PLAYORDER=
